<?xml version="1.0" encoding="utf-8"?>
<svg xmlns="http://www.w3.org/2000/svg" style="margin: auto; background: rgb(1, 30, 56); display: block; shape-rendering: auto;" width="251" height="102" preserveAspectRatio="xMidYMid">
<style type="text/css">
  text {
    text-anchor: middle; font-size: 29px; opacity: 0;
  }
</style>
<g style="transform-origin:125.5px 51px;transform:scale(1)">
<g transform="translate(125.5,51)">
  <g transform="translate(0,0)"><g class="path" style="opacity: 1; transform-origin: -84.46px -2.3144px; animation: 2.5s linear -1.52308s infinite normal forwards running fade-6ab7ac48-ad1b-4135-bafe-e3f57daaf448;"><path d="M20.71-10.50L20.71-10.50L20.71-10.50Q20.71-4.52 17.34-2.18L17.34-2.18L17.34-2.18Q14.24 0 8.82 0L8.82 0L0.61 0L0.61-0.55L2.52-0.55L2.52-19.75L0.61-19.75L0.61-20.30L9.57-20.30L9.57-20.30Q15.14-20.30 17.92-18.02L17.92-18.02L17.92-18.02Q20.71-15.75 20.71-10.50zM8.18-19.75L8.18-0.55L9.28-0.55L9.28-0.55Q12.21-0.55 13.47-2.62L13.47-2.62L13.47-2.62Q14.73-4.70 14.73-9.57L14.73-9.57L14.73-11.25L14.73-11.25Q14.73-17.78 12.24-19.11L12.24-19.11L12.24-19.11Q11.05-19.75 8.87-19.75L8.87-19.75L8.18-19.75" fill="#ffffff" stroke="none" stroke-width="none" transform="translate(-95.1199951171875,7.835603496844957)" style="fill: rgb(255, 255, 255);"></path></g><g class="path" style="opacity: 1; transform-origin: -68.6px -10.6694px; animation: 2.5s linear -1.39615s infinite normal forwards running fade-6ab7ac48-ad1b-4135-bafe-e3f57daaf448;"><path d="M26.45-15.81L26.45-15.81L26.45-15.81Q24.91-15.81 24.26-16.59L24.26-16.59L24.26-16.59Q23.61-17.37 23.61-18.53L23.61-18.53L23.61-18.53Q23.61-19.69 24.32-20.45L24.32-20.45L24.32-20.45Q25.03-21.20 26.48-21.20L26.48-21.20L26.48-21.20Q27.93-21.20 28.68-20.52L28.68-20.52L28.68-20.52Q29.43-19.84 29.43-18.57L29.43-18.57L29.43-18.57Q29.43-17.31 28.71-16.56L28.71-16.56L28.71-16.56Q27.98-15.81 26.45-15.81" fill="#ffffff" stroke="none" stroke-width="none" transform="translate(-95.1199951171875,7.835603496844957)" style="fill: rgb(255, 255, 255);"></path></g><g class="path" style="opacity: 1; transform-origin: -68.685px 0.935604px; animation: 2.5s linear -1.26923s infinite normal forwards running fade-6ab7ac48-ad1b-4135-bafe-e3f57daaf448;"><path d="M22.07-13.28L22.07-13.80L29.17-13.80L29.17-0.52L30.80-0.52L30.80 0L22.18 0L22.18-0.52L23.78-0.52L23.78-13.28L22.07-13.28" fill="#ffffff" stroke="none" stroke-width="none" transform="translate(-95.1199951171875,7.835603496844957)" style="fill: rgb(255, 255, 255);"></path></g><g class="path" style="opacity: 1; transform-origin: -57.55px 0.905604px; animation: 2.5s linear -1.14231s infinite normal forwards running fade-6ab7ac48-ad1b-4135-bafe-e3f57daaf448;"><path d="M32.39 0.29L32.05 0.29L32.05-4.90L32.39-4.90L32.39-4.90Q33.15-2.38 34.42-1.36L34.42-1.36L34.42-1.36Q35.70-0.35 37.61-0.35L37.61-0.35L37.61-0.35Q40.57-0.35 40.57-2.23L40.57-2.23L40.57-2.23Q40.57-3.05 39.85-3.45L39.85-3.45L39.85-3.45Q38.72-4.09 36.95-4.44L36.95-4.44L36.95-4.44Q34.97-4.96 33.64-5.83L33.64-5.83L33.64-5.83Q32.05-6.87 32.05-9.13L32.05-9.13L32.05-9.13Q32.05-11.40 33.44-12.75L33.44-12.75L33.44-12.75Q34.83-14.09 37.15-14.09L37.15-14.09L37.15-14.09Q38.57-14.09 40.08-13.43L40.08-13.43L40.08-13.43Q40.63-13.20 40.92-13.20L40.92-13.20L40.92-13.20Q41.21-13.20 41.41-13.40L41.41-13.40L41.41-13.40Q41.62-13.60 41.91-14.15L41.91-14.15L42.22-14.15L42.22-9.71L41.88-9.71L41.88-9.71Q40.40-13.49 37.29-13.49L37.29-13.49L37.29-13.49Q35.93-13.49 35.26-13.01L35.26-13.01L35.26-13.01Q34.60-12.53 34.60-11.80L34.60-11.80L34.60-11.80Q34.60-11.37 34.80-11.12L34.80-11.12L34.80-11.12Q35.00-10.88 35.12-10.76L35.12-10.76L35.12-10.76Q35.23-10.64 35.50-10.51L35.50-10.51L35.50-10.51Q35.76-10.38 35.93-10.31L35.93-10.31L35.93-10.31Q36.11-10.24 36.47-10.12L36.47-10.12L36.47-10.12Q36.83-10.01 37.00-9.98L37.00-9.98L37.00-9.98Q38.98-9.48 39.85-9.12L39.85-9.12L39.85-9.12Q40.72-8.76 41.50-8.24L41.50-8.24L41.50-8.24Q43.09-7.13 43.09-4.68L43.09-4.68L43.09-4.68Q43.09-2.23 41.64-0.97L41.64-0.97L41.64-0.97Q40.19 0.29 37.67 0.29L37.67 0.29L37.67 0.29Q35.87 0.29 34.19-0.55L34.19-0.55L34.19-0.55Q33.84-0.78 33.64-0.78L33.64-0.78L33.64-0.78Q33.00-0.78 32.39 0.29L32.39 0.29" fill="#ffffff" stroke="none" stroke-width="none" transform="translate(-95.1199951171875,7.835603496844957)" style="fill: rgb(255, 255, 255);"></path></g><g class="path" style="opacity: 1; transform-origin: -38.7px 0.790604px; animation: 2.5s linear -1.01538s infinite normal forwards running fade-6ab7ac48-ad1b-4135-bafe-e3f57daaf448;"><path d="M43.76-13.28L43.76-13.80L50.75-13.80L50.75-11.14L50.75-11.14Q51.71-14.09 54.97-14.09L54.97-14.09L54.97-14.09Q58.23-14.09 58.93-10.96L58.93-10.96L58.93-10.96Q59.94-14.09 63.19-14.09L63.19-14.09L63.19-14.09Q67.45-14.09 67.45-9.25L67.45-9.25L67.45-0.52L69.08-0.52L69.08 0L61.05 0L61.05-0.52L62.06-0.52L62.06-9.95L62.06-9.95Q62.06-12.15 61.68-12.53L61.68-12.53L61.68-12.53Q61.51-12.70 61.22-12.70L61.22-12.70L61.22-12.70Q60.38-12.70 59.74-11.57L59.74-11.57L59.74-11.57Q59.10-10.44 59.10-8.70L59.10-8.70L59.10-0.52L60.15-0.52L60.15 0L52.69 0L52.69-0.52L53.71-0.52L53.71-9.95L53.71-9.95Q53.71-12.15 53.33-12.53L53.33-12.53L53.33-12.53Q53.16-12.70 52.87-12.70L52.87-12.70L52.87-12.70Q52.05-12.70 51.40-11.47L51.40-11.47L51.40-11.47Q50.75-10.24 50.75-8.53L50.75-8.53L50.75-0.52L51.79-0.52L51.79 0L43.76 0L43.76-0.52L45.36-0.52L45.36-13.28L43.76-13.28" fill="#ffffff" stroke="none" stroke-width="none" transform="translate(-95.1199951171875,7.835603496844957)" style="fill: rgb(255, 255, 255);"></path></g><g class="path" style="opacity: 1; transform-origin: -17.79px 1.0806px; animation: 2.5s linear -0.888462s infinite normal forwards running fade-6ab7ac48-ad1b-4135-bafe-e3f57daaf448;"><path d="M85.90-0.52L85.90 0L79.29 0L78.97-2.12L78.97-2.12Q78.50-0.96 77.59-0.33L77.59-0.33L77.59-0.33Q76.68 0.29 74.88 0.29L74.88 0.29L74.88 0.29Q70.38 0.29 70.38-4.55L70.38-4.55L70.38-13.28L68.76-13.28L68.76-13.80L75.78-13.80L75.78-3.86L75.78-3.86Q75.78-2.12 76.02-1.57L76.02-1.57L76.02-1.57Q76.27-1.02 77.01-1.02L77.01-1.02L77.01-1.02Q77.75-1.02 78.33-1.91L78.33-1.91L78.33-1.91Q78.91-2.81 78.91-4.41L78.91-4.41L78.91-13.28L77.58-13.28L77.58-13.80L84.30-13.80L84.30-0.52L85.90-0.52" fill="#ffffff" stroke="none" stroke-width="none" transform="translate(-95.1199951171875,7.835603496844957)" style="fill: rgb(255, 255, 255);"></path></g><g class="path" style="opacity: 1; transform-origin: -2.45499px 0.905604px; animation: 2.5s linear -0.761538s infinite normal forwards running fade-6ab7ac48-ad1b-4135-bafe-e3f57daaf448;"><path d="M87.49 0.29L87.14 0.29L87.14-4.90L87.49-4.90L87.49-4.90Q88.25-2.38 89.52-1.36L89.52-1.36L89.52-1.36Q90.80-0.35 92.71-0.35L92.71-0.35L92.71-0.35Q95.67-0.35 95.67-2.23L95.67-2.23L95.67-2.23Q95.67-3.05 94.95-3.45L94.95-3.45L94.95-3.45Q93.81-4.09 92.05-4.44L92.05-4.44L92.05-4.44Q90.07-4.96 88.74-5.83L88.74-5.83L88.74-5.83Q87.14-6.87 87.14-9.13L87.14-9.13L87.14-9.13Q87.14-11.40 88.54-12.75L88.54-12.75L88.54-12.75Q89.93-14.09 92.25-14.09L92.25-14.09L92.25-14.09Q93.67-14.09 95.18-13.43L95.18-13.43L95.18-13.43Q95.73-13.20 96.02-13.20L96.02-13.20L96.02-13.20Q96.31-13.20 96.51-13.40L96.51-13.40L96.51-13.40Q96.72-13.60 97.00-14.15L97.00-14.15L97.32-14.15L97.32-9.71L96.98-9.71L96.98-9.71Q95.50-13.49 92.39-13.49L92.39-13.49L92.39-13.49Q91.03-13.49 90.36-13.01L90.36-13.01L90.36-13.01Q89.70-12.53 89.70-11.80L89.70-11.80L89.70-11.80Q89.70-11.37 89.90-11.12L89.90-11.12L89.90-11.12Q90.10-10.88 90.22-10.76L90.22-10.76L90.22-10.76Q90.34-10.64 90.60-10.51L90.60-10.51L90.60-10.51Q90.86-10.38 91.03-10.31L91.03-10.31L91.03-10.31Q91.20-10.24 91.57-10.12L91.57-10.12L91.57-10.12Q91.93-10.01 92.10-9.98L92.10-9.98L92.10-9.98Q94.08-9.48 94.95-9.12L94.95-9.12L94.95-9.12Q95.82-8.76 96.60-8.24L96.60-8.24L96.60-8.24Q98.19-7.13 98.19-4.68L98.19-4.68L98.19-4.68Q98.19-2.23 96.74-0.97L96.74-0.97L96.74-0.97Q95.29 0.29 92.77 0.29L92.77 0.29L92.77 0.29Q90.97 0.29 89.29-0.55L89.29-0.55L89.29-0.55Q88.94-0.78 88.74-0.78L88.74-0.78L88.74-0.78Q88.10-0.78 87.49 0.29L87.49 0.29" fill="#ffffff" stroke="none" stroke-width="none" transform="translate(-95.1199951171875,7.835603496844957)" style="fill: rgb(255, 255, 255);"></path></g><g class="path" style="opacity: 1; transform-origin: 18.59px -2.3144px; animation: 2.5s linear -0.634615s infinite normal forwards running fade-6ab7ac48-ad1b-4135-bafe-e3f57daaf448;"><path d="M122.70-19.75L121.10-19.75L121.10 0L117.04 0L107.10-18.76L107.10-0.55L108.69-0.55L108.69 0L104.72 0L104.72-0.55L106.31-0.55L106.31-19.75L104.72-19.75L104.72-20.30L112.72-20.30L120.32-5.74L120.32-19.75L118.73-19.75L118.73-20.30L122.70-20.30L122.70-19.75" fill="#ffffff" stroke="none" stroke-width="none" transform="translate(-95.1199951171875,7.835603496844957)" style="fill: rgb(255, 255, 255);"></path></g><g class="path" style="opacity: 1; transform-origin: 35.58px 2.5306px; animation: 2.5s linear -0.507692s infinite normal forwards running fade-6ab7ac48-ad1b-4135-bafe-e3f57daaf448;"><path d="M135.05-15.31L135.05-15.31L135.87-15.81L135.87-15.81Q136.04-16.70 135.17-16.70L135.17-16.70L135.17-16.70Q133.92-16.70 133.92-14.79L133.92-14.79L133.92-14.79Q133.92-14.04 134.13-13.05L134.13-13.05L134.13-13.05Q136.33-11.57 136.33-9.27L136.33-9.27L136.33-9.27Q136.33-6.96 134.73-5.68L134.73-5.68L134.73-5.68Q133.14-4.41 130.41-4.41L130.41-4.41L130.41-4.41Q129.28-4.41 128.06-4.64L128.06-4.64L128.06-4.64Q126.79-3.83 126.79-3.42L126.79-3.42L126.79-3.42Q126.79-3.02 128.64-3.02L128.64-3.02L131.60-3.02L131.60-3.02Q138.19-3.02 138.19 1.71L138.19 1.71L138.19 1.71Q138.19 4.26 136.20 5.76L136.20 5.76L136.20 5.76Q134.21 7.25 130.01 7.25L130.01 7.25L130.01 7.25Q122.84 7.25 122.84 4.15L122.84 4.15L122.84 4.15Q122.84 2.47 125.08 1.83L125.08 1.83L126.82 2.61L126.82 2.61Q126.58 3.45 126.58 4.21L126.58 4.21L126.58 4.21Q126.58 6.70 130.30 6.70L130.30 6.70L130.30 6.70Q132.56 6.70 133.78 5.86L133.78 5.86L133.78 5.86Q135.00 5.02 135.00 3.77L135.00 3.77L135.00 3.77Q135.00 2.52 134.26 2.10L134.26 2.10L134.26 2.10Q133.52 1.68 131.31 1.68L131.31 1.68L128.50 1.68L128.50 1.68Q126.15 1.68 125.14 0.90L125.14 0.90L125.14 0.90Q124.12 0.12 124.12-1.03L124.12-1.03L124.12-1.03Q124.12-2.18 124.84-2.94L124.84-2.94L124.84-2.94Q125.57-3.71 127.43-4.84L127.43-4.84L127.43-4.84Q124.06-5.80 124.06-9.25L124.06-9.25L124.06-9.25Q124.06-11.43 125.63-12.76L125.63-12.76L125.63-12.76Q127.19-14.09 130.33-14.09L130.33-14.09L130.33-14.09Q132.21-14.09 133.55-13.37L133.55-13.37L133.55-13.37Q133.37-14.15 133.37-14.79L133.37-14.79L133.37-14.79Q133.37-16.41 134.24-17.14L134.24-17.14L134.24-17.14Q135.11-17.86 136.18-17.86L136.18-17.86L136.18-17.86Q137.26-17.86 137.91-17.30L137.91-17.30L137.91-17.30Q138.56-16.73 138.56-15.75L138.56-15.75L138.56-15.75Q138.56-14.76 138.04-14.28L138.04-14.28L138.04-14.28Q137.52-13.80 136.78-13.80L136.78-13.80L136.78-13.80Q136.04-13.80 135.56-14.20L135.56-14.20L135.56-14.20Q135.08-14.59 135.05-15.31zM128.91-9.89L128.91-9.89L128.91-8.32L128.91-8.32Q128.91-6.38 129.24-5.68L129.24-5.68L129.24-5.68Q129.57-4.99 130.25-4.99L130.25-4.99L130.25-4.99Q130.94-4.99 131.24-5.67L131.24-5.67L131.24-5.67Q131.54-6.35 131.54-8.47L131.54-8.47L131.54-9.89L131.54-9.89Q131.54-12.15 131.25-12.86L131.25-12.86L131.25-12.86Q130.96-13.57 130.28-13.57L130.28-13.57L130.28-13.57Q129.60-13.57 129.25-12.83L129.25-12.83L129.25-12.83Q128.91-12.09 128.91-9.89" fill="#ffffff" stroke="none" stroke-width="none" transform="translate(-95.1199951171875,7.835603496844957)" style="fill: rgb(255, 255, 255);"></path></g><g class="path" style="opacity: 1; transform-origin: 46.035px -10.2594px; animation: 2.5s linear -0.380769s infinite normal forwards running fade-6ab7ac48-ad1b-4135-bafe-e3f57daaf448;"><path d="M141.17-13.95L140.56-13.95L139.72-21.66L139.72-21.66Q140.88-22.24 141.61-22.24L141.61-22.24L141.61-22.24Q142.59-22.24 142.59-21.17L142.59-21.17L142.59-21.17Q142.59-20.50 142.33-19.26L142.33-19.26L141.17-13.95" fill="#ffffff" stroke="none" stroke-width="none" transform="translate(-95.1199951171875,7.835603496844957)" style="fill: rgb(255, 255, 255);"></path></g><g class="path" style="opacity: 1; transform-origin: 55.0049px 0.935604px; animation: 2.5s linear -0.253846s infinite normal forwards running fade-6ab7ac48-ad1b-4135-bafe-e3f57daaf448;"><path d="M150.71 0.29L150.71 0.29Q146.97 0.29 145.10-1.64L145.10-1.64L145.10-1.64Q143.23-3.57 143.23-7.00L143.23-7.00L143.23-7.00Q143.23-10.44 145.33-12.27L145.33-12.27L145.33-12.27Q147.44-14.09 150.68-14.09L150.68-14.09L150.68-14.09Q157.27-14.09 157.01-7.48L157.01-7.48L148.83-7.48L148.83-6.35L148.83-6.35Q148.83-3.51 149.55-2.06L149.55-2.06L149.55-2.06Q150.28-0.61 152.08-0.61L152.08-0.61L152.08-0.61Q155.44-0.61 156.48-4.21L156.48-4.21L157.01-4.12L157.01-4.12Q156.45-2.03 155.02-0.87L155.02-0.87L155.02-0.87Q153.58 0.29 150.71 0.29L150.71 0.29zM148.86-9.48L148.86-8.06L151.84-8.06L151.84-9.48L151.84-9.48Q151.84-11.83 151.57-12.69L151.57-12.69L151.57-12.69Q151.29-13.54 150.47-13.54L150.47-13.54L150.47-13.54Q149.64-13.54 149.25-12.63L149.25-12.63L149.25-12.63Q148.86-11.72 148.86-9.48L148.86-9.48" fill="#ffffff" stroke="none" stroke-width="none" transform="translate(-95.1199951171875,7.835603496844957)" style="fill: rgb(255, 255, 255);"></path></g><g class="path" style="opacity: 1; transform-origin: 71.705px 0.790604px; animation: 2.5s linear -0.126923s infinite normal forwards running fade-6ab7ac48-ad1b-4135-bafe-e3f57daaf448;"><path d="M158.11-13.28L158.11-13.80L165.10-13.80L165.10-11.14L165.10-11.14Q165.56-12.47 166.52-13.28L166.52-13.28L166.52-13.28Q167.47-14.09 169.42-14.09L169.42-14.09L169.42-14.09Q173.91-14.09 173.91-9.25L173.91-9.25L173.91-0.52L175.54-0.52L175.54 0L167.33 0L167.33-0.52L168.52-0.52L168.52-9.95L168.52-9.95Q168.52-11.69 168.29-12.19L168.29-12.19L168.29-12.19Q168.05-12.70 167.45-12.70L167.45-12.70L167.45-12.70Q166.52-12.70 165.81-11.48L165.81-11.48L165.81-11.48Q165.10-10.27 165.10-8.53L165.10-8.53L165.10-0.52L166.34-0.52L166.34 0L158.11 0L158.11-0.52L159.70-0.52L159.70-13.28L158.11-13.28" fill="#ffffff" stroke="none" stroke-width="none" transform="translate(-95.1199951171875,7.835603496844957)" style="fill: rgb(255, 255, 255);"></path></g><g class="path" style="opacity: 1; transform-origin: 88.38px 0.935604px; animation: 2.5s linear 0s infinite normal forwards running fade-6ab7ac48-ad1b-4135-bafe-e3f57daaf448;"><path d="M185.28-5.71L185.28-5.71L185.28-8.18L185.28-8.18Q185.28-10.99 184.98-12.28L184.98-12.28L184.98-12.28Q184.67-13.57 183.57-13.57L183.57-13.57L183.57-13.57Q182.93-13.57 182.54-13.21L182.54-13.21L182.54-13.21Q182.15-12.85 181.97-12.01L181.97-12.01L181.97-12.01Q181.71-10.70 181.71-8.03L181.71-8.03L181.71-5.77L181.71-5.77Q181.71-2.61 181.90-1.97L181.90-1.97L181.90-1.97Q182.09-1.33 182.29-0.93L182.29-0.93L182.29-0.93Q182.61-0.23 183.54-0.23L183.54-0.23L183.54-0.23Q184.67-0.23 185.02-1.54L185.02-1.54L185.02-1.54Q185.28-2.47 185.28-5.71zM183.48 0.29L183.48 0.29Q179.86 0.29 178.00-1.57L178.00-1.57L178.00-1.57Q176.15-3.42 176.15-6.89L176.15-6.89L176.15-6.89Q176.15-10.35 178.13-12.22L178.13-12.22L178.13-12.22Q180.12-14.09 183.72-14.09L183.72-14.09L183.72-14.09Q187.31-14.09 189.08-12.37L189.08-12.37L189.08-12.37Q190.85-10.64 190.85-7.11L190.85-7.11L190.85-7.11Q190.85 0.29 183.48 0.29L183.48 0.29" fill="#ffffff" stroke="none" stroke-width="none" transform="translate(-95.1199951171875,7.835603496844957)" style="fill: rgb(255, 255, 255);"></path></g></g>
</g>
</g>
<style id="fade-6ab7ac48-ad1b-4135-bafe-e3f57daaf448" data-anikit="">@keyframes fade-6ab7ac48-ad1b-4135-bafe-e3f57daaf448
{
  0% {
    animation-timing-function: cubic-bezier(0.2057,0.573,0.3723,0.9184);
    opacity: 1;
  }
  100% {
    opacity: 0;
  }
}</style></svg>