<?xml version="1.0" encoding="utf-8"?>
<svg xmlns="http://www.w3.org/2000/svg" style="margin: auto; background: rgb(1, 30, 56); display: block; shape-rendering: auto;" width="251" height="102" preserveAspectRatio="xMidYMid">
<style type="text/css">
  text {
    text-anchor: middle; font-size: 29px; opacity: 0;
  }
</style>
<g style="transform-origin: 125.5px 51px; transform: scale(1.20833);">
<g transform="translate(125.5,51)">
  <g transform="translate(0,0)"><g class="path" style="opacity: 1; transform-origin: -93.72px -2.092px; animation: 2.5s linear -1.54688s infinite normal forwards running fade-6ab7ac48-ad1b-4135-bafe-e3f57daaf448;"><path d="M0.60-16.34L0.60-16.80L7.92-16.80L7.92-16.34L6.60-16.34L6.60-0.46L7.92-0.46L7.92 0L0.60 0L0.60-0.46L1.92-0.46L1.92-16.34L0.60-16.34" fill="#ffffff" stroke="none" stroke-width="none" transform="translate(-97.98001098632812,6.307999782562256)" style="fill: rgb(255, 255, 255);"></path></g><g class="path" style="opacity: 1; transform-origin: -87.07px -8.667px; animation: 2.5s linear -1.44375s infinite normal forwards running fade-6ab7ac48-ad1b-4135-bafe-e3f57daaf448;"><path d="M10.92-11.54L10.42-11.54L9.72-17.93L9.72-17.93Q10.68-18.41 11.28-18.41L11.28-18.41L11.28-18.41Q12.10-18.41 12.10-17.52L12.10-17.52L12.10-17.52Q12.10-16.97 11.88-15.94L11.88-15.94L10.92-11.54" fill="#ffffff" stroke="none" stroke-width="none" transform="translate(-97.98001098632812,6.307999782562256)" style="fill: rgb(255, 255, 255);"></path></g><g class="path" style="opacity: 1; transform-origin: -74.28px 0.478px; animation: 2.5s linear -1.34062s infinite normal forwards running fade-6ab7ac48-ad1b-4135-bafe-e3f57daaf448;"><path d="M13.22-10.99L13.22-11.42L19.01-11.42L19.01-9.22L19.01-9.22Q19.80-11.66 22.50-11.66L22.50-11.66L22.50-11.66Q25.20-11.66 25.78-9.07L25.78-9.07L25.78-9.07Q26.62-11.66 29.30-11.66L29.30-11.66L29.30-11.66Q32.83-11.66 32.83-7.66L32.83-7.66L32.83-0.43L34.18-0.43L34.18 0L27.53 0L27.53-0.43L28.37-0.43L28.37-8.23L28.37-8.23Q28.37-10.06 28.06-10.37L28.06-10.37L28.06-10.37Q27.91-10.51 27.67-10.51L27.67-10.51L27.67-10.51Q26.98-10.51 26.45-9.58L26.45-9.58L26.45-9.58Q25.92-8.64 25.92-7.20L25.92-7.20L25.92-0.43L26.78-0.43L26.78 0L20.62 0L20.62-0.43L21.46-0.43L21.46-8.23L21.46-8.23Q21.46-10.06 21.14-10.37L21.14-10.37L21.14-10.37Q21-10.51 20.76-10.51L20.76-10.51L20.76-10.51Q20.09-10.51 19.55-9.49L19.55-9.49L19.55-9.49Q19.01-8.47 19.01-7.06L19.01-7.06L19.01-0.43L19.87-0.43L19.87 0L13.22 0L13.22-0.43L14.54-0.43L14.54-10.99L13.22-10.99" fill="#ffffff" stroke="none" stroke-width="none" transform="translate(-97.98001098632812,6.307999782562256)" style="fill: rgb(255, 255, 255);"></path></g><g class="path" style="opacity: 1; transform-origin: -50.545px -2.092px; animation: 2.5s linear -1.2375s infinite normal forwards running fade-6ab7ac48-ad1b-4135-bafe-e3f57daaf448;"><path d="M55.75-8.69L55.75-8.69L55.75-8.69Q55.75-3.74 52.97-1.80L52.97-1.80L52.97-1.80Q50.40 0 45.91 0L45.91 0L39.12 0L39.12-0.46L40.70-0.46L40.70-16.34L39.12-16.34L39.12-16.80L46.54-16.80L46.54-16.80Q51.14-16.80 53.45-14.92L53.45-14.92L53.45-14.92Q55.75-13.03 55.75-8.69zM45.38-16.34L45.38-0.46L46.30-0.46L46.30-0.46Q48.72-0.46 49.76-2.17L49.76-2.17L49.76-2.17Q50.81-3.89 50.81-7.92L50.81-7.92L50.81-9.31L50.81-9.31Q50.81-14.71 48.74-15.82L48.74-15.82L48.74-15.82Q47.76-16.34 45.96-16.34L45.96-16.34L45.38-16.34" fill="#ffffff" stroke="none" stroke-width="none" transform="translate(-97.98001098632812,6.307999782562256)" style="fill: rgb(255, 255, 255);"></path></g><g class="path" style="opacity: 1; transform-origin: -37.415px -9.002px; animation: 2.5s linear -1.13437s infinite normal forwards running fade-6ab7ac48-ad1b-4135-bafe-e3f57daaf448;"><path d="M60.50-13.08L60.50-13.08L60.50-13.08Q59.23-13.08 58.69-13.73L58.69-13.73L58.69-13.73Q58.15-14.38 58.15-15.34L58.15-15.34L58.15-15.34Q58.15-16.30 58.74-16.92L58.74-16.92L58.74-16.92Q59.33-17.54 60.53-17.54L60.53-17.54L60.53-17.54Q61.73-17.54 62.35-16.98L62.35-16.98L62.35-16.98Q62.98-16.42 62.98-15.37L62.98-15.37L62.98-15.37Q62.98-14.33 62.38-13.70L62.38-13.70L62.38-13.70Q61.78-13.08 60.50-13.08" fill="#ffffff" stroke="none" stroke-width="none" transform="translate(-97.98001098632812,6.307999782562256)" style="fill: rgb(255, 255, 255);"></path></g><g class="path" style="opacity: 1; transform-origin: -37.49px 0.598px; animation: 2.5s linear -1.03125s infinite normal forwards running fade-6ab7ac48-ad1b-4135-bafe-e3f57daaf448;"><path d="M56.88-10.99L56.88-11.42L62.76-11.42L62.76-0.43L64.10-0.43L64.10 0L56.98 0L56.98-0.43L58.30-0.43L58.30-10.99L56.88-10.99" fill="#ffffff" stroke="none" stroke-width="none" transform="translate(-97.98001098632812,6.307999782562256)" style="fill: rgb(255, 255, 255);"></path></g><g class="path" style="opacity: 1; transform-origin: -28.27px 0.572999px; animation: 2.5s linear -0.928125s infinite normal forwards running fade-6ab7ac48-ad1b-4135-bafe-e3f57daaf448;"><path d="M65.42 0.24L65.14 0.24L65.14-4.06L65.42-4.06L65.42-4.06Q66.05-1.97 67.10-1.13L67.10-1.13L67.10-1.13Q68.16-0.29 69.74-0.29L69.74-0.29L69.74-0.29Q72.19-0.29 72.19-1.85L72.19-1.85L72.19-1.85Q72.19-2.52 71.59-2.86L71.59-2.86L71.59-2.86Q70.66-3.38 69.19-3.67L69.19-3.67L69.19-3.67Q67.56-4.10 66.46-4.82L66.46-4.82L66.46-4.82Q65.14-5.69 65.14-7.56L65.14-7.56L65.14-7.56Q65.14-9.43 66.29-10.55L66.29-10.55L66.29-10.55Q67.44-11.66 69.36-11.66L69.36-11.66L69.36-11.66Q70.54-11.66 71.78-11.11L71.78-11.11L71.78-11.11Q72.24-10.92 72.48-10.92L72.48-10.92L72.48-10.92Q72.72-10.92 72.89-11.09L72.89-11.09L72.89-11.09Q73.06-11.26 73.30-11.71L73.30-11.71L73.56-11.71L73.56-8.04L73.27-8.04L73.27-8.04Q72.05-11.16 69.48-11.16L69.48-11.16L69.48-11.16Q68.35-11.16 67.80-10.76L67.80-10.76L67.80-10.76Q67.25-10.37 67.25-9.77L67.25-9.77L67.25-9.77Q67.25-9.41 67.42-9.20L67.42-9.20L67.42-9.20Q67.58-9 67.68-8.90L67.68-8.90L67.68-8.90Q67.78-8.81 67.99-8.70L67.99-8.70L67.99-8.70Q68.21-8.59 68.35-8.53L68.35-8.53L68.35-8.53Q68.50-8.47 68.80-8.38L68.80-8.38L68.80-8.38Q69.10-8.28 69.24-8.26L69.24-8.26L69.24-8.26Q70.87-7.85 71.59-7.55L71.59-7.55L71.59-7.55Q72.31-7.25 72.96-6.82L72.96-6.82L72.96-6.82Q74.28-5.90 74.28-3.88L74.28-3.88L74.28-3.88Q74.28-1.85 73.08-0.80L73.08-0.80L73.08-0.80Q71.88 0.24 69.79 0.24L69.79 0.24L69.79 0.24Q68.30 0.24 66.91-0.46L66.91-0.46L66.91-0.46Q66.62-0.65 66.46-0.65L66.46-0.65L66.46-0.65Q65.93-0.65 65.42 0.24L65.42 0.24" fill="#ffffff" stroke="none" stroke-width="none" transform="translate(-97.98001098632812,6.307999782562256)" style="fill: rgb(255, 255, 255);"></path></g><g class="path" style="opacity: 1; transform-origin: -12.675px 0.478px; animation: 2.5s linear -0.825s infinite normal forwards running fade-6ab7ac48-ad1b-4135-bafe-e3f57daaf448;"><path d="M74.83-10.99L74.83-11.42L80.62-11.42L80.62-9.22L80.62-9.22Q81.41-11.66 84.11-11.66L84.11-11.66L84.11-11.66Q86.81-11.66 87.38-9.07L87.38-9.07L87.38-9.07Q88.22-11.66 90.91-11.66L90.91-11.66L90.91-11.66Q94.44-11.66 94.44-7.66L94.44-7.66L94.44-0.43L95.78-0.43L95.78 0L89.14 0L89.14-0.43L89.98-0.43L89.98-8.23L89.98-8.23Q89.98-10.06 89.66-10.37L89.66-10.37L89.66-10.37Q89.52-10.51 89.28-10.51L89.28-10.51L89.28-10.51Q88.58-10.51 88.06-9.58L88.06-9.58L88.06-9.58Q87.53-8.64 87.53-7.20L87.53-7.20L87.53-0.43L88.39-0.43L88.39 0L82.22 0L82.22-0.43L83.06-0.43L83.06-8.23L83.06-8.23Q83.06-10.06 82.75-10.37L82.75-10.37L82.75-10.37Q82.61-10.51 82.37-10.51L82.37-10.51L82.37-10.51Q81.70-10.51 81.16-9.49L81.16-9.49L81.16-9.49Q80.62-8.47 80.62-7.06L80.62-7.06L80.62-0.43L81.48-0.43L81.48 0L74.83 0L74.83-0.43L76.15-0.43L76.15-10.99L74.83-10.99" fill="#ffffff" stroke="none" stroke-width="none" transform="translate(-97.98001098632812,6.307999782562256)" style="fill: rgb(255, 255, 255);"></path></g><g class="path" style="opacity: 1; transform-origin: 4.62999px 0.717999px; animation: 2.5s linear -0.721875s infinite normal forwards running fade-6ab7ac48-ad1b-4135-bafe-e3f57daaf448;"><path d="M109.70-0.43L109.70 0L104.23 0L103.97-1.75L103.97-1.75Q103.58-0.79 102.83-0.28L102.83-0.28L102.83-0.28Q102.07 0.24 100.58 0.24L100.58 0.24L100.58 0.24Q96.86 0.24 96.86-3.77L96.86-3.77L96.86-10.99L95.52-10.99L95.52-11.42L101.33-11.42L101.33-3.19L101.33-3.19Q101.33-1.75 101.53-1.30L101.53-1.30L101.53-1.30Q101.74-0.84 102.35-0.84L102.35-0.84L102.35-0.84Q102.96-0.84 103.44-1.58L103.44-1.58L103.44-1.58Q103.92-2.33 103.92-3.65L103.92-3.65L103.92-10.99L102.82-10.99L102.82-11.42L108.38-11.42L108.38-0.43L109.70-0.43" fill="#ffffff" stroke="none" stroke-width="none" transform="translate(-97.98001098632812,6.307999782562256)" style="fill: rgb(255, 255, 255);"></path></g><g class="path" style="opacity: 1; transform-origin: 17.33px 0.572999px; animation: 2.5s linear -0.61875s infinite normal forwards running fade-6ab7ac48-ad1b-4135-bafe-e3f57daaf448;"><path d="M111.02 0.24L110.74 0.24L110.74-4.06L111.02-4.06L111.02-4.06Q111.65-1.97 112.70-1.13L112.70-1.13L112.70-1.13Q113.76-0.29 115.34-0.29L115.34-0.29L115.34-0.29Q117.79-0.29 117.79-1.85L117.79-1.85L117.79-1.85Q117.79-2.52 117.19-2.86L117.19-2.86L117.19-2.86Q116.26-3.38 114.79-3.67L114.79-3.67L114.79-3.67Q113.16-4.10 112.06-4.82L112.06-4.82L112.06-4.82Q110.74-5.69 110.74-7.56L110.74-7.56L110.74-7.56Q110.74-9.43 111.89-10.55L111.89-10.55L111.89-10.55Q113.04-11.66 114.96-11.66L114.96-11.66L114.96-11.66Q116.14-11.66 117.38-11.11L117.38-11.11L117.38-11.11Q117.84-10.92 118.08-10.92L118.08-10.92L118.08-10.92Q118.32-10.92 118.49-11.09L118.49-11.09L118.49-11.09Q118.66-11.26 118.90-11.71L118.90-11.71L119.16-11.71L119.16-8.04L118.87-8.04L118.87-8.04Q117.65-11.16 115.08-11.16L115.08-11.16L115.08-11.16Q113.95-11.16 113.40-10.76L113.40-10.76L113.40-10.76Q112.85-10.37 112.85-9.77L112.85-9.77L112.85-9.77Q112.85-9.41 113.02-9.20L113.02-9.20L113.02-9.20Q113.18-9 113.28-8.90L113.28-8.90L113.28-8.90Q113.38-8.81 113.59-8.70L113.59-8.70L113.59-8.70Q113.81-8.59 113.95-8.53L113.95-8.53L113.95-8.53Q114.10-8.47 114.40-8.38L114.40-8.38L114.40-8.38Q114.70-8.28 114.84-8.26L114.84-8.26L114.84-8.26Q116.47-7.85 117.19-7.55L117.19-7.55L117.19-7.55Q117.91-7.25 118.56-6.82L118.56-6.82L118.56-6.82Q119.88-5.90 119.88-3.88L119.88-3.88L119.88-3.88Q119.88-1.85 118.68-0.80L118.68-0.80L118.68-0.80Q117.48 0.24 115.39 0.24L115.39 0.24L115.39 0.24Q113.90 0.24 112.51-0.46L112.51-0.46L112.51-0.46Q112.22-0.65 112.06-0.65L112.06-0.65L112.06-0.65Q111.53-0.65 111.02 0.24L111.02 0.24" fill="#ffffff" stroke="none" stroke-width="none" transform="translate(-97.98001098632812,6.307999782562256)" style="fill: rgb(255, 255, 255);"></path></g><g class="path" style="opacity: 1; transform-origin: 34.74px -2.092px; animation: 2.5s linear -0.515625s infinite normal forwards running fade-6ab7ac48-ad1b-4135-bafe-e3f57daaf448;"><path d="M140.16-16.34L138.84-16.34L138.84 0L135.48 0L127.25-15.53L127.25-0.46L128.57-0.46L128.57 0L125.28 0L125.28-0.46L126.60-0.46L126.60-16.34L125.28-16.34L125.28-16.80L131.90-16.80L138.19-4.75L138.19-16.34L136.87-16.34L136.87-16.80L140.16-16.80L140.16-16.34" fill="#ffffff" stroke="none" stroke-width="none" transform="translate(-97.98001098632812,6.307999782562256)" style="fill: rgb(255, 255, 255);"></path></g><g class="path" style="opacity: 1; transform-origin: 48.805px 1.918px; animation: 2.5s linear -0.4125s infinite normal forwards running fade-6ab7ac48-ad1b-4135-bafe-e3f57daaf448;"><path d="M150.38-12.67L150.38-12.67L151.06-13.08L151.06-13.08Q151.20-13.82 150.48-13.82L150.48-13.82L150.48-13.82Q149.45-13.82 149.45-12.24L149.45-12.24L149.45-12.24Q149.45-11.62 149.62-10.80L149.62-10.80L149.62-10.80Q151.44-9.58 151.44-7.67L151.44-7.67L151.44-7.67Q151.44-5.76 150.12-4.70L150.12-4.70L150.12-4.70Q148.80-3.65 146.54-3.65L146.54-3.65L146.54-3.65Q145.61-3.65 144.60-3.84L144.60-3.84L144.60-3.84Q143.54-3.17 143.54-2.83L143.54-2.83L143.54-2.83Q143.54-2.50 145.08-2.50L145.08-2.50L147.53-2.50L147.53-2.50Q152.98-2.50 152.98 1.42L152.98 1.42L152.98 1.42Q152.98 3.53 151.33 4.76L151.33 4.76L151.33 4.76Q149.69 6 146.21 6L146.21 6L146.21 6Q140.28 6 140.28 3.43L140.28 3.43L140.28 3.43Q140.28 2.04 142.13 1.51L142.13 1.51L143.57 2.16L143.57 2.16Q143.38 2.86 143.38 3.48L143.38 3.48L143.38 3.48Q143.38 5.54 146.45 5.54L146.45 5.54L146.45 5.54Q148.32 5.54 149.33 4.85L149.33 4.85L149.33 4.85Q150.34 4.15 150.34 3.12L150.34 3.12L150.34 3.12Q150.34 2.09 149.72 1.74L149.72 1.74L149.72 1.74Q149.11 1.39 147.29 1.39L147.29 1.39L144.96 1.39L144.96 1.39Q143.02 1.39 142.18 0.74L142.18 0.74L142.18 0.74Q141.34 0.10 141.34-0.85L141.34-0.85L141.34-0.85Q141.34-1.80 141.94-2.44L141.94-2.44L141.94-2.44Q142.54-3.07 144.07-4.01L144.07-4.01L144.07-4.01Q141.29-4.80 141.29-7.66L141.29-7.66L141.29-7.66Q141.29-9.46 142.58-10.56L142.58-10.56L142.58-10.56Q143.88-11.66 146.47-11.66L146.47-11.66L146.47-11.66Q148.03-11.66 149.14-11.06L149.14-11.06L149.14-11.06Q148.99-11.71 148.99-12.24L148.99-12.24L148.99-12.24Q148.99-13.58 149.71-14.18L149.71-14.18L149.71-14.18Q150.43-14.78 151.32-14.78L151.32-14.78L151.32-14.78Q152.21-14.78 152.75-14.32L152.75-14.32L152.75-14.32Q153.29-13.85 153.29-13.03L153.29-13.03L153.29-13.03Q153.29-12.22 152.86-11.82L152.86-11.82L152.86-11.82Q152.42-11.42 151.81-11.42L151.81-11.42L151.81-11.42Q151.20-11.42 150.80-11.75L150.80-11.75L150.80-11.75Q150.41-12.07 150.38-12.67zM145.30-8.18L145.30-8.18L145.30-6.89L145.30-6.89Q145.30-5.28 145.57-4.70L145.57-4.70L145.57-4.70Q145.85-4.13 146.41-4.13L146.41-4.13L146.41-4.13Q146.98-4.13 147.23-4.69L147.23-4.69L147.23-4.69Q147.48-5.26 147.48-7.01L147.48-7.01L147.48-8.18L147.48-8.18Q147.48-10.06 147.24-10.64L147.24-10.64L147.24-10.64Q147.00-11.23 146.44-11.23L146.44-11.23L146.44-11.23Q145.87-11.23 145.58-10.62L145.58-10.62L145.58-10.62Q145.30-10.01 145.30-8.18" fill="#ffffff" stroke="none" stroke-width="none" transform="translate(-97.98001098632812,6.307999782562256)" style="fill: rgb(255, 255, 255);"></path></g><g class="path" style="opacity: 1; transform-origin: 57.455px -8.667px; animation: 2.5s linear -0.309375s infinite normal forwards running fade-6ab7ac48-ad1b-4135-bafe-e3f57daaf448;"><path d="M155.45-11.54L154.94-11.54L154.25-17.93L154.25-17.93Q155.21-18.41 155.81-18.41L155.81-18.41L155.81-18.41Q156.62-18.41 156.62-17.52L156.62-17.52L156.62-17.52Q156.62-16.97 156.41-15.94L156.41-15.94L155.45-11.54" fill="#ffffff" stroke="none" stroke-width="none" transform="translate(-97.98001098632812,6.307999782562256)" style="fill: rgb(255, 255, 255);"></path></g><g class="path" style="opacity: 1; transform-origin: 64.8743px 0.598px; animation: 2.5s linear -0.20625s infinite normal forwards running fade-6ab7ac48-ad1b-4135-bafe-e3f57daaf448;"><path d="M163.34 0.24L163.34 0.24Q160.25 0.24 158.70-1.36L158.70-1.36L158.70-1.36Q157.15-2.95 157.15-5.80L157.15-5.80L157.15-5.80Q157.15-8.64 158.89-10.15L158.89-10.15L158.89-10.15Q160.63-11.66 163.32-11.66L163.32-11.66L163.32-11.66Q168.77-11.66 168.55-6.19L168.55-6.19L161.78-6.19L161.78-5.26L161.78-5.26Q161.78-2.90 162.38-1.70L162.38-1.70L162.38-1.70Q162.98-0.50 164.47-0.50L164.47-0.50L164.47-0.50Q167.26-0.50 168.12-3.48L168.12-3.48L168.55-3.41L168.55-3.41Q168.10-1.68 166.91-0.72L166.91-0.72L166.91-0.72Q165.72 0.24 163.34 0.24L163.34 0.24zM161.81-7.85L161.81-6.67L164.28-6.67L164.28-7.85L164.28-7.85Q164.28-9.79 164.05-10.50L164.05-10.50L164.05-10.50Q163.82-11.21 163.14-11.21L163.14-11.21L163.14-11.21Q162.46-11.21 162.13-10.45L162.13-10.45L162.13-10.45Q161.81-9.70 161.81-7.85L161.81-7.85" fill="#ffffff" stroke="none" stroke-width="none" transform="translate(-97.98001098632812,6.307999782562256)" style="fill: rgb(255, 255, 255);"></path></g><g class="path" style="opacity: 1; transform-origin: 78.695px 0.478px; animation: 2.5s linear -0.103125s infinite normal forwards running fade-6ab7ac48-ad1b-4135-bafe-e3f57daaf448;"><path d="M169.46-10.99L169.46-11.42L175.25-11.42L175.25-9.22L175.25-9.22Q175.63-10.32 176.42-10.99L176.42-10.99L176.42-10.99Q177.22-11.66 178.82-11.66L178.82-11.66L178.82-11.66Q182.54-11.66 182.54-7.66L182.54-7.66L182.54-0.43L183.89-0.43L183.89 0L177.10 0L177.10-0.43L178.08-0.43L178.08-8.23L178.08-8.23Q178.08-9.67 177.89-10.09L177.89-10.09L177.89-10.09Q177.70-10.51 177.19-10.51L177.19-10.51L177.19-10.51Q176.42-10.51 175.84-9.50L175.84-9.50L175.84-9.50Q175.25-8.50 175.25-7.06L175.25-7.06L175.25-0.43L176.28-0.43L176.28 0L169.46 0L169.46-0.43L170.78-0.43L170.78-10.99L169.46-10.99" fill="#ffffff" stroke="none" stroke-width="none" transform="translate(-97.98001098632812,6.307999782562256)" style="fill: rgb(255, 255, 255);"></path></g><g class="path" style="opacity: 1; transform-origin: 92.495px 0.598px; animation: 2.5s linear 0s infinite normal forwards running fade-6ab7ac48-ad1b-4135-bafe-e3f57daaf448;"><path d="M191.95-4.73L191.95-4.73L191.95-6.77L191.95-6.77Q191.95-9.10 191.70-10.16L191.70-10.16L191.70-10.16Q191.45-11.23 190.54-11.23L190.54-11.23L190.54-11.23Q190.01-11.23 189.68-10.93L189.68-10.93L189.68-10.93Q189.36-10.63 189.22-9.94L189.22-9.94L189.22-9.94Q189.00-8.86 189.00-6.65L189.00-6.65L189.00-4.78L189.00-4.78Q189.00-2.16 189.16-1.63L189.16-1.63L189.16-1.63Q189.31-1.10 189.48-0.77L189.48-0.77L189.48-0.77Q189.74-0.19 190.51-0.19L190.51-0.19L190.51-0.19Q191.45-0.19 191.74-1.27L191.74-1.27L191.74-1.27Q191.95-2.04 191.95-4.73zM190.46 0.24L190.46 0.24Q187.46 0.24 185.93-1.30L185.93-1.30L185.93-1.30Q184.39-2.83 184.39-5.70L184.39-5.70L184.39-5.70Q184.39-8.57 186.04-10.12L186.04-10.12L186.04-10.12Q187.68-11.66 190.66-11.66L190.66-11.66L190.66-11.66Q193.63-11.66 195.10-10.24L195.10-10.24L195.10-10.24Q196.56-8.81 196.56-5.88L196.56-5.88L196.56-5.88Q196.56 0.24 190.46 0.24L190.46 0.24" fill="#ffffff" stroke="none" stroke-width="none" transform="translate(-97.98001098632812,6.307999782562256)" style="fill: rgb(255, 255, 255);"></path></g></g>
</g>
</g>
<style id="fade-6ab7ac48-ad1b-4135-bafe-e3f57daaf448" data-anikit="">@keyframes fade-6ab7ac48-ad1b-4135-bafe-e3f57daaf448
{
  0% {
    animation-timing-function: cubic-bezier(0.2057,0.573,0.3723,0.9184);
    opacity: 1;
  }
  100% {
    opacity: 0;
  }
}</style></svg>